<?xml version="1.0" encoding="utf-8"?>
<!-- Generator: Adobe Illustrator 20.0.0, SVG Export Plug-In . SVG Version: 6.00 Build 0)  -->
<svg version="1.1" id="Layer_1" xmlns="http://www.w3.org/2000/svg" xmlns:xlink="http://www.w3.org/1999/xlink" x="0px" y="0px"
	 viewBox="0 0 191.8 48.4" style="enable-background:new 0 0 191.8 48.4;" xml:space="preserve">
<style type="text/css">
	.st0{fill:#8DC63F; font-weight: 100; stroke: black; stroke-width: .1px;}
	.st1{font-family:'BaskOldFace';}
	.st2{font-size:24px;}
	.st3{fill:#00AEEF; stroke: black; stroke-width: .1px;}
	.st4{font-size:18px;}
</style>
<text transform="matrix(1 0 0 1 1.3678 19.7424)"><tspan x="0" y="0" class="st0 st1 st2">T</tspan>
<tspan x="16" y="0" class="st0 st1 st2">h</tspan><tspan x="29" y="0" class="st0 st1 st2">e</tspan>
<tspan x="40" y="0" class="st1 st2"> </tspan><tspan x="46" y="0" class="st3 st1 st2">U</tspan>
<tspan x="64" y="0" class="st3 st1 st2">l</tspan><tspan x="70" y="0" class="st3 st1 st2">t</tspan>
<tspan x="76" y="0" class="st3 st1 st2">i</tspan><tspan x="82" y="0" class="st3 st1 st2">m</tspan><tspan x="101" y="0" class="st3 st1 st2">a</tspan><tspan x="111" y="0" class="st3 st1 st2">t</tspan><tspan x="117" y="0" class="st3 st1 st2">e</tspan><tspan x="128" y="0" class="st1 st2"> </tspan><tspan x="134" y="0" class="st0 st1 st2">C</tspan><tspan x="150" y="0" class="st0 st1 st2">le</tspan><tspan x="167" y="0" class="st0 st1 st2">a</tspan><tspan x="177" y="0" class="st0 st1 st2">n</tspan><tspan x="18.5" y="21.6" class="st3 st1 st4">t</tspan><tspan x="23.5" y="21.6" class="st3 st1 st4">h</tspan><tspan x="32.5" y="21.6" class="st3 st1 st4">e</tspan><tspan x="40.5" y="21.6" class="st3 st1 st4"> </tspan><tspan x="45.5" y="21.6" class="st3 st1 st4">w</tspan><tspan x="56.5" y="21.6" class="st3 st1 st4">o</tspan><tspan x="65.5" y="21.6" class="st3 st1 st4">r</tspan><tspan x="71.5" y="21.6" class="st3 st1 st4">l</tspan><tspan x="75.5" y="21.6" class="st3 st1 st4">d</tspan><tspan x="84.5" y="21.6" class="st3 st1 st4"> </tspan><tspan x="89.5" y="21.6" class="st3 st1 st4">a</tspan><tspan x="97.5" y="21.6" class="st3 st1 st4">t</tspan><tspan x="102.5" y="21.6" class="st3 st1 st4"> </tspan><tspan x="107.5" y="21.6" class="st3 st1 st4">y</tspan><tspan x="115.5" y="21.6" class="st3 st1 st4">o</tspan><tspan x="124.5" y="21.6" class="st3 st1 st4">u</tspan><tspan x="133.5" y="21.6" class="st3 st1 st4">r</tspan><tspan x="139.5" y="21.6" class="st3 st1 st4"> </tspan><tspan x="144.5" y="21.6" class="st3 st1 st4">f</tspan><tspan x="149.5" y="21.6" class="st3 st1 st4">ee</tspan><tspan x="165.5" y="21.6" class="st3 st1 st4">t</tspan></text>

<rect x="0" y="0" width="200" height="50"
      style="fill: #ffffff;
         fill-opacity: 0.1;"
        />
</svg>
