<svg id="logo-thayf" xmlns="http://www.w3.org/2000/svg" viewBox="0 0 547.53 110.71"><title>logo-thayf</title><path d="M145.7,64.58a22.47,22.47,0,0,1-15.13.67,49.92,49.92,0,0,0-3.18-26.14A27.47,27.47,0,0,1,145.7,64.58Z" transform="translate(-5.88 6.04)" style="fill:#6cf"/><path d="M159.71,43.75A22.44,22.44,0,0,1,151,61.5a30,30,0,0,0-26-27.36A49.21,49.21,0,0,0,121.12,28,22.49,22.49,0,0,1,159.71,43.75Z" transform="translate(-5.88 6.04)" style="fill:#6cf"/><path d="M145.71,65a27.5,27.5,0,1,1-27.5-27.5c0.64,0,1.27,0,1.89.07a27.09,27.09,0,0,1,7.29,1.51A27.47,27.47,0,0,1,145.7,64.58C145.71,64.73,145.71,64.88,145.71,65Z" transform="translate(-5.88 6.04)" style="fill:#6cf;opacity:0.75"/><path d="M124.32,56.65a44.93,44.93,0,0,1-15.7,34.16,27.5,27.5,0,0,1,9.59-53.28c0.64,0,1.27,0,1.89.07A44.77,44.77,0,0,1,124.32,56.65Z" transform="translate(-5.88 6.04)" style="fill:#6cf"/><path d="M100.23,95.9a45,45,0,1,1,16.41-62.68C98.29,36.42,84.46,50.7,84.46,67.83,84.46,79.28,90.64,89.46,100.23,95.9Z" transform="translate(-5.88 6.04)" style="fill:#6cf"/><g style="opacity:0.27"><path d="M102.81,18c1.6,1,1.76,1.33.36,0.65A20.69,20.69,0,0,0,96,17.42a40.49,40.49,0,0,0-11.33,2.5c-3.67,1.38-10,6.06-14,10.42a262.77,262.77,0,0,0-17,21.58c-5.32,7.52-10.92,15.81-12.45,18.43s-4.14,1.22-5.8-3.11l-0.64-4.3-0.05-.34c0-.37,1.12-2.1,2.6-3.84S44.46,50.59,50,44.5A253.2,253.2,0,0,1,68.29,26.25c4.58-3.94,11.22-8.14,14.75-9.33a41.29,41.29,0,0,1,10-2.17C95,14.75,101.21,17,102.81,18Z" transform="translate(-5.88 6.04)" style="fill:#020018"/></g><path d="M-23,24.17" transform="translate(-5.88 6.04)" style="fill:#9f3"/><path d="M34.13,86" transform="translate(-5.88 6.04)" style="fill:#9f3"/><path d="M23,81.25c1.47,4.54,6.87.45,12-9.08s13.68-23.48,19-31A263.29,263.29,0,0,1,71,19.58c4-4.35,10.33-9,14-10.42a40.5,40.5,0,0,1,11.33-2.5,24.79,24.79,0,0,1,9,2.08A90.7,90.7,0,0,1,116.54,16c3.8,2.83,4.14,2.34.75-1.08S108.84,7.62,106,6.33A30.53,30.53,0,0,0,95.38,4a45.55,45.55,0,0,0-12,2.17c-3.53,1.19-10.17,5.39-14.75,9.33A252.64,252.64,0,0,0,50.29,33.75c-5.5,6.1-14.5,17.42-20,25.17S21.49,76.71,23,81.25Z" transform="translate(-5.88 6.04)" style="fill:#296597"/><path d="M23,81.25c1.47,4.54,6.87.45,12-9.08s13.68-23.48,19-31A263.29,263.29,0,0,1,71,19.58c4-4.35,10.33-9,14-10.42a40.5,40.5,0,0,1,11.33-2.5,24.79,24.79,0,0,1,9,2.08A90.7,90.7,0,0,1,116.54,16c3.8,2.83,4.14,2.34.75-1.08S108.84,7.62,106,6.33A30.53,30.53,0,0,0,95.38,4a45.55,45.55,0,0,0-12,2.17c-3.53,1.19-10.17,5.39-14.75,9.33A252.64,252.64,0,0,0,50.29,33.75c-5.5,6.1-14.5,17.42-20,25.17S21.49,76.71,23,81.25Z" transform="translate(-5.88 6.04)" style="fill:#9f3"/><path d="M5.63,69.17" transform="translate(-5.88 6.04)" style="fill:#9f3"/><polygon points="0 75.29 19.5 96.04 33.92 65.46 26.9 61.46 14 78.71 0 75.29" style="fill:#9f3"/><text transform="translate(168.14 61.09)" style="font-size:48px;font-family:Baskerville Old Face"><tspan style="fill:#8dc63f">The</tspan><tspan x="79.73" y="0"> </tspan><tspan x="91.73" y="0" style="fill:#00aeef">Ultimate</tspan><tspan x="256.52" y="0"> </tspan><tspan x="268.52" y="0" style="fill:#8dc63f">Clean</tspan></text><text transform="translate(182.01 101.24)" style="font-size:36px;fill:#00aeef;font-family:Baskerville Old Face">The World at Your Feet</text><text x="-5.88" y="6.04"/></svg>
